<svg xmlns="http://www.w3.org/2000/svg" width="1200" height="800" viewBox="0 0 1200 800" fill="none"><rect width="1200" height="800" rx="40" fill="#FFF7ED"/><rect x="250" y="150" width="700" height="500" rx="28" fill="#FB923C"/><path d="M430 240C430 165.441 490.441 105 565 105H635C709.559 105 770 165.441 770 240V285H700V240C700 204.654 671.346 176 636 176H564C528.654 176 500 204.654 500 240V285H430V240Z" fill="#7C2D12"/><rect x="320" y="300" width="560" height="290" rx="20" fill="#FFEDD5"/><circle cx="430" cy="395" r="54" fill="#F97316"/><circle cx="548" cy="450" r="64" fill="#22C55E"/><circle cx="682" cy="380" r="58" fill="#EAB308"/><circle cx="790" cy="458" r="48" fill="#EF4444"/><text x="600" y="565" text-anchor="middle" font-family="Arial" font-size="48" font-weight="700" fill="#9A3412">ДИКСИ ПАКЕТ</text></svg>
